<?xml version="1.0" encoding="UTF-8"?>
<svg width="20px" height="20px" viewBox="0 0 20 20" version="1.1" xmlns="http://www.w3.org/2000/svg" xmlns:xlink="http://www.w3.org/1999/xlink">
    <!-- Generator: Sketch 64 (93537) - https://sketch.com -->
    <title>Shape</title>
    <desc>Created with Sketch.</desc>
    <g id="Page-1" stroke="none" stroke-width="1" fill="none" fill-rule="evenodd">
        <g id="mobile" transform="translate(-262.000000, -38.000000)" fill="#5B9AF8" fill-rule="nonzero">
            <path d="M279.425,54.625 L279.425,46.525 L277.738,46.525 C277.904,47.05 277.988,47.595 277.988,48.163 C277.988,49.213 277.721,50.181 277.188,51.069 C276.654,51.956 275.929,52.659 275.012,53.175 C274.096,53.692 273.096,53.95 272.012,53.95 C270.371,53.95 268.967,53.385 267.8,52.256 C266.633,51.127 266.05,49.763 266.05,48.163 C266.05,47.596 266.133,47.05 266.3,46.525 L264.537,46.525 L264.537,54.625 C264.537,54.842 264.61,55.023 264.757,55.169 C264.902,55.315 265.083,55.387 265.3,55.387 L278.662,55.387 C278.871,55.387 279.05,55.315 279.2,55.169 C279.35,55.023 279.425,54.842 279.425,54.625 L279.425,54.625 Z M274.737,50.612 C275.496,49.879 275.875,48.996 275.875,47.962 C275.875,46.929 275.498,46.048 274.744,45.319 C273.99,44.589 273.079,44.225 272.013,44.225 C270.954,44.225 270.048,44.59 269.293,45.319 C268.54,46.048 268.163,46.929 268.163,47.962 C268.163,48.996 268.54,49.877 269.293,50.606 C270.048,51.336 270.954,51.7 272.013,51.7 C273.079,51.7 273.988,51.337 274.737,50.612 Z M279.425,43.462 L279.425,41.4 C279.425,41.167 279.342,40.965 279.175,40.794 C279.008,40.623 278.805,40.537 278.562,40.537 L276.387,40.537 C276.146,40.537 275.942,40.623 275.775,40.794 C275.608,40.964 275.525,41.167 275.525,41.4 L275.525,43.462 C275.525,43.704 275.608,43.908 275.775,44.075 C275.942,44.242 276.145,44.325 276.387,44.325 L278.562,44.325 C278.804,44.325 279.008,44.242 279.175,44.075 C279.342,43.908 279.425,43.705 279.425,43.462 L279.425,43.462 Z M281.6,40.862 L281.6,55.137 C281.6,55.813 281.358,56.392 280.875,56.875 C280.392,57.358 279.812,57.6 279.137,57.6 L264.863,57.6 C264.187,57.6 263.608,57.358 263.125,56.875 C262.642,56.392 262.4,55.812 262.4,55.137 L262.4,40.863 C262.4,40.187 262.642,39.608 263.125,39.125 C263.608,38.642 264.188,38.4 264.863,38.4 L279.137,38.4 C279.813,38.4 280.392,38.642 280.875,39.125 C281.358,39.608 281.6,40.188 281.6,40.863 L281.6,40.862 Z" id="Shape"></path>
        </g>
    </g>
</svg>