<?xml version="1.0" encoding="UTF-8"?>
<svg width="20px" height="20px" viewBox="0 0 20 20" version="1.1" xmlns="http://www.w3.org/2000/svg" xmlns:xlink="http://www.w3.org/1999/xlink">
    <!-- Generator: Sketch 64 (93537) - https://sketch.com -->
    <title>Combined Shape</title>
    <desc>Created with Sketch.</desc>
    <g id="Page-1" stroke="none" stroke-width="1" fill="none" fill-rule="evenodd">
        <g id="mobile" transform="translate(-174.000000, -38.000000)" fill="#5B9AF8" fill-rule="nonzero">
            <path d="M190,38.4 C190.992,38.4 191.84,38.752 192.544,39.456 C193.248,40.16 193.6,41.008 193.6,42 L193.6,54 C193.6,54.992 193.248,55.84 192.544,56.544 C191.84,57.248 190.992,57.6 190,57.6 L178,57.6 C177.008,57.6 176.16,57.248 175.456,56.544 C174.752,55.84 174.4,54.992 174.4,54 L174.4,42 C174.4,41.008 174.752,40.16 175.456,39.456 C176.16,38.752 177.008,38.4 178,38.4 L190,38.4 Z M180.25,45.8 L177.362,45.8 L177.362,54.475 L180.25,54.475 L180.25,45.8 Z M187.312,45.6 C186.254533,45.6 185.425298,46.0251022 184.825106,46.8744936 L184.725,47.024 L184.725,45.8 L181.837,45.8 C181.862,46.35 181.862,49.242 181.837,54.475 L184.725,54.475 L184.725,49.625 C184.725,49.308 184.755,49.075 184.812,48.925 C184.937,48.633 185.125,48.385 185.375,48.181 C185.625,47.977 185.933,47.875 186.3,47.875 C187.267,47.875 187.75,48.529 187.75,49.838 L187.75,54.475 L190.637,54.475 L190.637,49.5 C190.637,48.217 190.333,47.246 189.725,46.588 C189.117,45.929 188.312,45.6 187.312,45.6 Z M178.825,41.625 C178.342,41.625 177.948,41.767 177.644,42.05 C177.34,42.333 177.187,42.692 177.187,43.125 C177.187,43.55 177.335,43.906 177.631,44.194 C177.927,44.481 178.312,44.625 178.787,44.625 L178.8,44.625 C179.292,44.625 179.687,44.481 179.987,44.194 C180.287,43.906 180.437,43.55 180.437,43.125 C180.429,42.692 180.279,42.333 179.987,42.05 C179.696,41.767 179.308,41.625 178.825,41.625 Z" id="Combined-Shape"></path>
        </g>
    </g>
</svg>