<?xml version="1.0" encoding="UTF-8"?>
<svg width="20px" height="20px" viewBox="0 0 20 20" version="1.1" xmlns="http://www.w3.org/2000/svg" xmlns:xlink="http://www.w3.org/1999/xlink">
    <!-- Generator: Sketch 64 (93537) - https://sketch.com -->
    <title>Combined Shape</title>
    <desc>Created with Sketch.</desc>
    <g id="Page-1" stroke="none" stroke-width="1" fill="none" fill-rule="evenodd">
        <g id="mobile" transform="translate(-86.000000, -38.000000)" fill="#5B9AF8" fill-rule="nonzero">
            <path d="M102,38.4 C102.992,38.4 103.84,38.752 104.544,39.456 C105.248,40.16 105.6,41.008 105.6,42 L105.6,54 C105.6,54.992 105.248,55.84 104.544,56.544 C103.84,57.248 102.992,57.6 102,57.6 L90,57.6 C89.008,57.6 88.16,57.248 87.456,56.544 C86.752,55.84 86.4,54.992 86.4,54 L86.4,42 C86.4,41.008 86.752,40.16 87.456,39.456 C88.16,38.752 89.008,38.4 90,38.4 L102,38.4 Z M98.463,43.2 C97.738,43.2 97.119,43.456 96.606,43.969 C96.094,44.481 95.837,45.1 95.837,45.825 C95.837,46.067 95.858,46.267 95.9,46.425 C94.825,46.367 93.817,46.095 92.875,45.613 C91.933,45.129 91.133,44.483 90.475,43.675 C90.233,44.092 90.112,44.533 90.112,45 C90.112,45.95 90.492,46.68 91.25,47.188 C90.858,47.179 90.442,47.071 90,46.863 L90,46.888 C90,47.513 90.208,48.068 90.625,48.556 C91.042,49.044 91.555,49.346 92.162,49.463 C91.921,49.529 91.708,49.563 91.525,49.563 C91.417,49.563 91.255,49.546 91.037,49.513 C91.212,50.038 91.523,50.471 91.969,50.813 C92.415,51.154 92.921,51.329 93.487,51.338 C92.521,52.088 91.433,52.463 90.225,52.463 C90.008,52.463 89.8,52.45 89.6,52.425 C90.833,53.208 92.175,53.6 93.625,53.6 C94.558,53.6 95.433,53.452 96.25,53.156 C97.067,52.86 97.767,52.465 98.35,51.969 C98.933,51.473 99.435,50.902 99.856,50.256 C100.277,49.61 100.59,48.936 100.794,48.231 C100.998,47.527 101.1,46.825 101.1,46.125 C101.1,45.975 101.096,45.863 101.087,45.788 C101.612,45.413 102.05,44.958 102.4,44.425 C101.933,44.633 101.43,44.775 100.887,44.85 C101.454,44.517 101.842,44.03 102.05,43.388 C101.508,43.704 100.95,43.917 100.375,44.025 C99.867,43.475 99.229,43.2 98.463,43.2 Z" id="Combined-Shape"></path>
        </g>
    </g>
</svg>